<?xml version="1.0" standalone="no"?>
<!DOCTYPE svg PUBLIC "-//W3C//DTD SVG 20010904//EN"
 "http://www.w3.org/TR/2001/REC-SVG-20010904/DTD/svg10.dtd">
<svg version="1.0" xmlns="http://www.w3.org/2000/svg"
 width="20pt" height="30pt" viewBox="0 0 666.000000 750.000000"
 preserveAspectRatio="xMidYMid meet">

<g transform="translate(0.000000,750.000000) scale(0.100000,-0.100000)"
fill="#3F51B5" stroke="none">
<path d="M5370 7138 c-73 -62 -248 -172 -354 -223 -277 -133 -535 -183 -894
-172 -264 8 -408 39 -660 144 l-133 55 -85 -37 c-182 -78 -380 -131 -577 -155
-137 -17 -412 -8 -552 19 -243 45 -516 158 -715 295 l-95 65 -75 -72 c-41 -40
-259 -253 -485 -474 l-409 -402 66 -128 c198 -381 308 -778 325 -1165 10 -247
-26 -427 -176 -876 -136 -404 -182 -578 -216 -806 -46 -317 63 -757 267 -1072
128 -198 353 -417 683 -663 223 -166 276 -199 511 -310 292 -138 466 -210 668
-276 150 -50 487 -195 583 -251 77 -44 193 -144 240 -205 l47 -60 20 28 c42
59 118 132 196 187 59 43 151 90 347 178 312 139 381 167 679 277 249 91 398
155 496 212 91 54 437 315 578 437 177 153 331 318 411 440 163 246 251 497
280 798 24 244 -13 425 -202 984 -187 552 -225 778 -184 1097 32 251 85 469
166 690 39 108 165 373 226 475 l28 48 -464 457 c-255 251 -473 465 -485 474
-20 16 -23 15 -56 -13z m-1895 -1808 c373 -16 547 -61 725 -187 171 -122 275
-271 332 -478 19 -69 22 -105 22 -265 -1 -168 -3 -194 -27 -283 -97 -362 -302
-576 -630 -656 -131 -32 -256 -41 -587 -41 l-310 0 0 -610 0 -610 -345 0 -345
0 0 1563 c0 860 3 1567 7 1570 10 10 904 8 1158 -3z"/>
<path d="M2980 4371 l0 -451 194 0 c294 0 423 24 528 99 108 78 159 197 159
371 0 176 -52 290 -163 357 -97 59 -143 66 -445 71 l-273 4 0 -451z"/>
</g>
</svg>
