<?xml version="1.0" standalone="no"?>
<!DOCTYPE svg PUBLIC "-//W3C//DTD SVG 20010904//EN"
 "http://www.w3.org/TR/2001/REC-SVG-20010904/DTD/svg10.dtd">
<svg version="1.0" xmlns="http://www.w3.org/2000/svg"
 width="20pt" height="30pt" viewBox="0 0 666.000000 750.000000"
 preserveAspectRatio="xMidYMid meet">

<g transform="translate(0.000000,750.000000) scale(0.100000,-0.100000)"
fill="#3F51B5" stroke="white">
<path stroke="white" d="M5370 7138 c-73 -62 -248 -172 -354 -223 -277 -133 -535 -183 -894
-172 -264 8 -408 39 -660 144 l-133 55 -85 -37 c-182 -78 -380 -131 -577 -155
-137 -17 -412 -8 -552 19 -243 45 -516 158 -715 295 l-95 65 -75 -72 c-41 -40
-259 -253 -485 -474 l-409 -402 66 -128 c198 -381 308 -778 325 -1165 10 -247
-26 -427 -176 -876 -136 -404 -182 -578 -216 -806 -46 -317 63 -757 267 -1072
128 -198 353 -417 683 -663 223 -166 276 -199 511 -310 292 -138 466 -210 668
-276 150 -50 487 -195 583 -251 77 -44 193 -144 240 -205 l47 -60 20 28 c42
59 118 132 196 187 59 43 151 90 347 178 312 139 381 167 679 277 249 91 398
155 496 212 91 54 437 315 578 437 177 153 331 318 411 440 163 246 251 497
280 798 24 244 -13 425 -202 984 -187 552 -225 778 -184 1097 32 251 85 469
166 690 39 108 165 373 226 475 l28 48 -464 457 c-255 251 -473 465 -485 474
-20 16 -23 15 -56 -13z m-1646 -1412 c151 -35 264 -74 391 -136 79 -39 263
-146 284 -166 3 -3 -225 -331 -250 -358 -4 -4 -45 17 -92 48 -223 148 -439
216 -689 216 -370 0 -619 -140 -683 -385 -19 -76 -19 -197 1 -265 60 -202 248
-299 769 -395 183 -33 403 -96 540 -152 167 -70 317 -210 391 -368 107 -227
110 -575 7 -810 -125 -284 -397 -470 -783 -536 -316 -54 -731 -24 -1009 73
-99 34 -265 112 -331 154 -116 74 -209 147 -202 159 4 7 68 87 142 177 l135
165 45 -37 c155 -127 376 -227 585 -265 50 -10 158 -19 240 -22 539 -18 844
206 794 582 -14 107 -46 171 -120 240 -112 103 -231 145 -624 220 -381 73
-518 111 -646 177 -185 95 -315 257 -371 463 -19 69 -22 107 -22 280 -1 229
13 303 85 452 140 292 412 454 864 517 17 2 120 3 230 2 177 -3 214 -6 319
-30z"/>
</g>
</svg>
